<svg xmlns="http://www.w3.org/2000/svg" viewBox="0 0 512 512">
<defs>
<radialGradient id="rhea-mask-body" cx="40%" cy="35%" r="68%">
<stop offset="0" stop-color="#14f195"/>
<stop offset=".55" stop-color="#9945ff"/>
<stop offset="1" stop-color="#05060d"/>
</radialGradient>
<radialGradient id="rhea-mask-field" cx="40%" cy="35%" r="80%">
<stop stop-color="#9945ff" stop-opacity=".18"/>
<stop offset=".62" stop-color="#05060d" stop-opacity=".35"/>
<stop offset="1" stop-color="#05060d"/>
</radialGradient>
<linearGradient id="rhea-mask-ring" x1="0" y1="0" x2="1" y2="0">
<stop stop-color="#9945ff"/>
<stop offset=".48" stop-color="#3fe0ff"/>
<stop offset="1" stop-color="#14f195"/>
</linearGradient>
<filter id="rhea-mask-glow" x="-60%" y="-60%" width="220%" height="220%">
<feGaussianBlur stdDeviation="16"/>
</filter>
<clipPath id="rhea-mask-clip"><circle cx="256" cy="251" r="103"/></clipPath>
</defs>
<rect width="512" height="512" fill="#05060d"/>
<rect width="512" height="512" fill="url(#rhea-mask-field)"/>
<circle cx="256" cy="251" r="120" fill="#9945ff" opacity=".2" filter="url(#rhea-mask-glow)"/>
<ellipse cx="256" cy="262" rx="164" ry="68" fill="none" stroke="url(#rhea-mask-ring)" stroke-width="17" transform="rotate(-18 256 262)"/>
<circle cx="256" cy="251" r="103" fill="url(#rhea-mask-body)" stroke="#8fe8ff" stroke-width="5"/>
<path d="M141 262C190 204 322 204 371 262" fill="none" stroke="#05060d" stroke-width="16" opacity=".45" transform="rotate(-18 256 262)" clip-path="url(#rhea-mask-clip)"/>
<ellipse cx="219" cy="198" rx="23" ry="12" fill="#8fe8ff" opacity=".56" transform="rotate(-28 219 198)"/>
<g fill="#e8f4ff">
<ellipse cx="222" cy="247" rx="12" ry="17" transform="rotate(-7 222 247)"/>
<ellipse cx="290" cy="247" rx="12" ry="17" transform="rotate(7 290 247)"/>
</g>
<path d="M139 262C191 323 321 323 373 262" fill="none" stroke="url(#rhea-mask-ring)" stroke-width="17" stroke-linecap="round" transform="rotate(-18 256 262)"/>
<path d="M152 257C202 303 310 306 360 266" fill="none" stroke="#8fe8ff" stroke-width="4" opacity=".72" transform="rotate(-18 256 262)"/>
</svg>
